:SAMPLES-PER-SECOND 30
:FULLY-SPECIFIED
:DEGREES
840
root  16.0707 38.8814 0.482337 91.8358 84.5695 94.2036
RightUpLeg  -11.2382 -0.188376 -11.2854
RightLeg  57.4766 -0.401357 -1.07874
RightFoot  -0.208416 -0.732442 7.48129
RightToes  -1.74624e-010 0 -3.6325e-017
Spine  4.75485 0.932527 -0.707832
Spine1  5.47241 2.21513 -9.28826
HEad  -15.3936 -0.411547 -2.9302
LeftShoulder1  -0.119253 3.81439 -32.3294
LeftArm  1.39302 -0.345373 -42.5288
LeftForeArm  29.8439 -11.2866 -8.86335
LeftHand  -0.0272159 8.23257 0.672512
RightShoulder  -0.669721 -5.35719 29.4155
RightArm  35.5817 14.8889 52.5144
RightForeArm  5.36753 15.9506 7.49582
RightHand  -0.20655 4.27204 -2.78917
LeftUpLeg  -4.26163 3.74348 -8.66183
LeftLeg  15.0193 7.3097 0.458257
LeftFoot  -7.7388 -0.149557 6.23554
LeftToes  2.27646e-009 -8.13696e-011 -1.44715e-011
841
root  16.9617 38.965 0.411109 103.127 85.2413 106.089
RightUpLeg  -14.0402 0.970657 -9.8087
RightLeg  54.5461 -1.85235 -3.20757
RightFoot  -1.49577 -0.548252 6.24222
RightToes  -1.74624e-010 0 -3.6325e-017
Spine  5.52887 0.28521 -1.67079
Spine1  5.40099 1.14034 -7.46046
HEad  -16.4385 -0.158432 -2.38871
LeftShoulder1  -0.0747036 3.69923 -31.6596
LeftArm  5.18686 -2.58571 -45.0992
LeftForeArm  22.9034 -13.5928 -8.38072
LeftHand  -0.0203971 8.7738 0.895422
RightShoulder  -0.614252 -5.21023 29.2274
RightArm  24.9773 12.5562 51.5603
RightForeArm  16.6442 6.2699 11.2775
RightHand  -0.174121 2.78788 -2.68611
LeftUpLeg  -1.59253 4.49559 -7.76634
LeftLeg  14.0141 5.6343 0.209181
LeftFoot  -8.61455 -0.093659 6.10792
LeftToes  2.27646e-009 -8.13696e-011 -1.44715e-011
842
root  17.8456 38.9416 0.364327 109.906 85.1471 112.907
RightUpLeg  -16.8959 2.11158 -9.15138
RightLeg  49.3612 -2.10419 -2.98368
RightFoot  -2.50282 -0.466886 5.84012
RightToes  -1.74624e-010 0 -3.6325e-017
Spine  5.84922 0.10424 -2.99358
Spine1  5.43084 0.682713 -6.0337
HEad  -17.5657 -0.0898372 -1.86157
LeftShoulder1  0.0337878 3.41231 -30.705
LeftArm  9.36587 -4.54398 -48.2859
LeftForeArm  14.7157 -17.4702 -6.57793
LeftHand  -0.018597 8.85447 0.966826
RightShoulder  -0.683668 -5.36139 30.1054
RightArm  20.497 8.94062 49.4648
RightForeArm  22.992 0.368104 10.9293
RightHand  -0.129614 1.63199 -2.29441
LeftUpLeg  0.228334 4.9683 -7.49171
LeftLeg  13.5167 4.59804 -0.0068512
LeftFoot  -9.75639 -0.0236447 5.95753
LeftToes  2.27646e-009 -8.13696e-011 -1.44715e-011
843
root  18.7747 38.9196 0.298752 120.934 85.0197 124.259
RightUpLeg  -17.9696 2.5649 -8.28818
RightLeg  41.1294 -2.1217 -2.24442
RightFoot  -3.76073 -0.487631 6.95908
RightToes  -1.74624e-010 0 -3.6325e-017
Spine  6.2906 -0.25852 -4.1557
Spine1  5.73898 -0.107943 -3.84021
HEad  -19.0775 0.213361 -1.5216
LeftShoulder1  -0.10574 3.78555 -31.4121
LeftArm  14.0131 -7.22916 -49.9393
LeftForeArm  8.82839 -22.5469 -4.84657
LeftHand  0.000882929 7.87634 1.92121
RightShoulder  -0.644499 -5.22732 30.6261
RightArm  18.7989 3.67862 46.8346
RightForeArm  27.5158 -0.969972 10.0683
RightHand  -0.0961365 0.34109 -1.99477
LeftUpLeg  2.43185 5.41505 -6.94929
LeftLeg  12.9981 3.26768 -0.18384
LeftFoot  -10.9834 0.0477811 5.77689
LeftToes  2.27646e-009 -8.13696e-011 -1.44715e-011
844
root  19.7297 38.8754 0.212732 130.307 84.4462 133.637
RightUpLeg  -18.4577 1.98611 -7.66876
RightLeg  31.139 -2.1872 -1.66608
RightFoot  -4.06898 -0.52374 7.78692
RightToes  -1.74624e-010 0 -3.6325e-017
Spine  6.57417 -0.813917 -4.88084
Spine1  5.82377 -0.896565 -2.38968
HEad  -19.8841 0.385859 -1.12653
LeftShoulder1  -0.225304 4.10117 -31.609
LeftArm  12.8508 -9.5422 -51.3431
LeftForeArm  11.0603 -28.0494 -5.39649
LeftHand  -0.000806958 6.85208 2.59521
RightShoulder  -0.745777 -5.45675 31.4644
RightArm  18.4986 -2.57935 43.4354
RightForeArm  28.0263 0.932899 9.4602
RightHand  -0.082521 0.549364 -1.70065
LeftUpLeg  4.39256 5.54477 -6.69244
LeftLeg  12.3659 1.99647 -0.321672
LeftFoot  -12.1026 0.109397 5.4802
LeftToes  2.27646e-009 -8.13696e-011 -1.44715e-011
845
root  20.7278 38.812 0.0809225 137.516 83.6107 140.782
RightUpLeg  -18.1811 -1.12635 -6.94049
RightLeg  20.092 -1.11373 -0.760728
RightFoot  -3.84418 -0.541484 7.85164
RightToes  -1.74624e-010 0 -3.6325e-017
Spine  6.58604 -1.50767 -5.18632
Spine1  5.97149 -1.75078 -1.25073
HEad  -20.7501 0.706903 -0.91705
LeftShoulder1  -0.261946 4.1981 -31.5825
LeftArm  10.7335 -11.5465 -52.7139
LeftForeArm  14.7119 -33.1985 -6.52156
LeftHand  -0.0167131 5.87211 2.88524
RightShoulder  -0.849917 -5.70399 31.9738
RightArm  18.4909 -9.18926 40.0614
RightForeArm  25.1023 3.71686 8.79086
RightHand  -0.0285708 1.45511 -0.611429
LeftUpLeg  6.45097 5.58378 -6.58946
LeftLeg  11.5306 0.850229 -0.487759
LeftFoot  -13.1592 0.166915 5.50705
LeftToes  2.27646e-009 -8.13696e-011 -1.44715e-011
846
root  21.7798 38.7023 -0.0152168 138.706 82.9322 141.646
RightUpLeg  -17.8447 -5.42561 -5.76755
RightLeg  9.40921 0.225621 -0.0822836
RightFoot  -3.93391 -0.554413 8.13878
RightToes  -1.74624e-010 0 -3.6325e-017
Spine  6.31942 -2.03213 -6.09634
Spine1  5.91283 -2.59106 0.444214
HEad  -20.7998 1.71801 -0.967475
LeftShoulder1  -0.319902 4.35168 -31.6034
LeftArm  10.1872 -13.3892 -53.4231
LeftForeArm  16.8965 -37.822 -7.65846
LeftHand  -0.0276476 5.32995 3.43262
RightShoulder  -0.836949 -5.69507 31.5289
RightArm  18.0447 -15.8154 37.5308
RightForeArm  22.4536 6.31566 7.9278
RightHand  -0.0179561 2.07087 -0.457068
LeftUpLeg  8.42237 5.78981 -6.54792
LeftLeg  10.5313 0.0877228 -0.911091
LeftFoot  -14.1223 0.222629 5.6746
LeftToes  2.27646e-009 -8.13696e-011 -1.44715e-011
847
root  22.907 38.5322 -0.0704476 138.753 82.3059 141.438
RightUpLeg  -17.4196 -7.57201 -5.13444
RightLeg  0.933874 -0.990426 0.743462
RightFoot  -4.19232 -0.565058 8.56678
RightToes  -1.74624e-010 0 -3.6325e-017
Spine  5.79897 -2.50495 -6.69705
Spine1  6.19315 -3.24399 1.40245
HEad  -20.5411 1.86844 -1.08224
LeftShoulder1  -0.33603 4.41273 -30.8242
LeftArm  10.0366 -15.142 -54.3427
LeftForeArm  19.2731 -41.257 -8.55823
LeftHand  -0.0442142 4.71557 3.89329
RightShoulder  -0.943957 -5.9615 31.7952
RightArm  18.0676 -20.9548 34.9847
RightForeArm  20.6131 7.9158 7.28789
RightHand  -0.000227277 2.51214 -0.201407
LeftUpLeg  10.5651 5.96361 -6.52898
LeftLeg  9.63235 -0.685968 -1.16957
LeftFoot  -15.4169 0.287083 5.46425
LeftToes  2.27646e-009 -8.13696e-011 -1.44715e-011
848
root  24.0773 38.3057 -0.110869 137.93 82.1435 140.845
RightUpLeg  -17.3491 -6.82848 -4.81249
RightLeg  -2.51954 -2.60326 0.64173
RightFoot  -4.32621 -0.53457 8.10366
RightToes  -1.74624e-010 0 -3.6325e-017
Spine  5.66534 -2.70355 -6.82545
Spine1  6.55211 -3.66373 2.34884
HEad  -20.3748 2.24351 -1.01719
LeftShoulder1  -0.404007 4.59158 -31.0035
LeftArm  10.7156 -17.4144 -54.5175
LeftForeArm  21.7357 -43.2727 -9.0665
LeftHand  -0.0455783 4.59217 3.46995
RightShoulder  -0.859278 -5.78368 31.0603
RightArm  16.3058 -25.3767 34.0439
RightForeArm  20.2041 8.03926 6.32061
RightHand  0.0255074 2.82188 0.149443
LeftUpLeg  12.9523 6.2263 -6.26355
LeftLeg  9.46819 -1.23034 -1.17493
LeftFoot  -17.0502 0.35584 5.08036
LeftToes  2.27646e-009 -8.13696e-011 -1.44715e-011
849
root  25.2869 38.0488 -0.128192 137.574 82.046 140.846
RightUpLeg  -18.644 -6.80481 -4.42541
RightLeg  1.26628 -3.55659 0.556262
RightFoot  -2.75701 -0.367162 5.17855
RightToes  -1.74624e-010 0 -3.6325e-017
Spine  6.01732 -2.79448 -6.98546
Spine1  6.61255 -4.09315 3.53875
HEad  -20.3995 2.74356 -1.26225
LeftShoulder1  -0.444335 4.69871 -31.0426
LeftArm  11.1672 -18.9888 -54.9241
LeftForeArm  23.5501 -44.1093 -9.23297
LeftHand  -0.048649 4.49622 3.59955
RightShoulder  -0.825715 -5.71068 30.7761
RightArm  14.3076 -28.0994 33.0761
RightForeArm  20.4222 7.15892 5.2931
RightHand  0.109343 2.75157 1.31074
LeftUpLeg  15.1549 6.49851 -5.84591
LeftLeg  10.0811 -1.77979 -1.0882
LeftFoot  -18.6279 0.400535 4.5227
LeftToes  2.27646e-009 -8.13696e-011 -1.44715e-011
850
root  26.5612 37.8932 -0.148649 144.169 82.3483 147.714
RightUpLeg  -20.1793 -7.69076 -3.19588
RightLeg  7.39728 -4.17948 0.656783
RightFoot  2.71856 -0.0181029 0.0664816
RightToes  -1.74624e-010 0 -3.6325e-017
Spine  5.99815 -3.09148 -5.57006
Spine1  6.99492 -4.64154 4.48267
HEad  -20.0551 3.36258 -1.60478
LeftShoulder1  -0.461617 4.7403 -31.1916
LeftArm  11.8188 -19.8867 -55.1921
LeftForeArm  24.761 -43.5249 -8.9482
LeftHand  -0.0600363 4.27291 4.09147
RightShoulder  -0.87255 -5.83346 30.837
RightArm  13.1928 -28.8696 32.3544
RightForeArm  20.1003 5.18641 4.71483
RightHand  -0.010923 1.72469 -0.312675
LeftUpLeg  17.2821 6.6225 -4.49085
LeftLeg  10.6413 -2.60859 -0.588627
LeftFoot  -19.5679 0.35952 3.38702
LeftToes  2.27646e-009 -8.13696e-011 -1.44715e-011
851
root  27.9319 37.706 -0.159365 153.151 82.6957 156.892
RightUpLeg  -20.9561 -10.0818 -1.47529
RightLeg  12.3592 -2.36103 0.402199
RightFoot  5.8041 -0.0512518 0.599469
RightToes  -1.74624e-010 0 -3.6325e-017
Spine  6.05037 -3.4725 -3.43848
Spine1  6.50353 -4.94399 4.54662
HEad  -19.6036 3.2363 -1.80262
LeftShoulder1  -0.465146 4.75326 -31.0846
LeftArm  12.9707 -19.591 -55.4612
LeftForeArm  25.2725 -41.6202 -8.28607
LeftHand  -0.0852908 3.68799 4.72984
RightShoulder  -0.91493 -5.94518 30.8711
RightArm  11.4379 -28.9677 32.0411
RightForeArm  19.973 4.16835 3.92265
RightHand  0.0178878 2.08938 0.117294
LeftUpLeg  18.5575 6.45544 -2.69304
LeftLeg  13.0776 -3.62018 -0.472873
LeftFoot  -20.5556 0.220846 1.21284
LeftToes  2.27646e-009 -8.13696e-011 -1.44715e-011
852
root  29.3456 37.6444 -0.183472 165.216 83.7798 169.181
RightUpLeg  -21.4153 -11.5225 1.20072
RightLeg  17.4259 0.314218 0.041106
RightFoot  4.35079 0.248673 -1.59705
RightToes  -1.74624e-010 0 -3.6325e-017
Spine  5.48154 -3.63179 -0.285723
Spine1  6.72617 -4.87461 4.22002
HEad  -18.6374 3.2 -1.93861
LeftShoulder1  -0.459734 4.73611 -31.1683
LeftArm  14.3998 -18.4448 -55.5113
LeftForeArm  25.7745 -38.3656 -7.26521
LeftHand  -0.0701324 3.81747 3.95452
RightShoulder  -0.973132 -6.0723 31.3018
RightArm  10.2139 -27.7978 31.6511
RightForeArm  17.8906 4.09674 3.46328
RightHand  0.0234651 3.49347 0.0407508
LeftUpLeg  19.5704 5.33017 -0.836662
LeftLeg  15.945 -3.3799 -0.5257
LeftFoot  -20.1955 -0.0566051 -2.30107
LeftToes  2.27646e-009 -8.13696e-011 -1.44715e-011
